# xmcd
#
# Track frame offsets: 
#        150
#        19395
#        37467
#        55214
#        71254
#        85796
#        99881
#        117562
#        136132
#        151325
#        168132
#        184935
#        201405
#        218385
#        233225
#        253078
#        279251
#        296778
#        312878
#
# Disc length: 4428 seconds
#
# Revision: 0
# Processed by: cddbd v1.4PL0 Copyright (c) Steve Scherf et al.
# Submitted via: ExactAudioCopy v0.90b3
#
DISCID=11114a13
DTITLE=Julio Iglesias - Romantic Collection
DYEAR=2002
DGENRE=Blues
TTITLE0=Mammy Blue
TTITLE1=When you tell me that you love me
TTITLE2=Nathalie
TTITLE3=Caminito
TTITLE4=Historia de un amor
TTITLE5=Vaya con dios
TTITLE6=Lia
TTITLE7=La quiero como es
TTITLE8=Can't help falling in love with you
TTITLE9=Somos
TTITLE10=Esos Amores
TTITLE11=Si volvieras otra ves
TTITLE12=No soy de aqui
TTITLE13=Crazy
TTITLE14=Fragile
TTITLE15=Caruso
TTITLE16=Un hombre solo
TTITLE17=Momentos
TTITLE18=When I need you
EXTD=
EXTT0=
EXTT1=
EXTT2=
EXTT3=
EXTT4=
EXTT5=
EXTT6=
EXTT7=
EXTT8=
EXTT9=
EXTT10=
EXTT11=
EXTT12=
EXTT13=
EXTT14=
EXTT15=
EXTT16=
EXTT17=
EXTT18=
PLAYORDER=
